<svg width="2059" height="468" viewBox="0 0 2059 468" fill="232323" xmlns="http://www.w3.org/2000/svg">
<g clip-path="url(#clip0_311_2)">
<path fill-rule="evenodd" clip-rule="evenodd" d="M0 0H2059V468H0V0ZM140.134 52.3438C119.201 62.7438 92.1339 98.6105 64.1339 153.011C48.8006 183.011 41.3339 199.944 40.2672 207.544C38.5339 220.077 45.3339 231.944 57.7339 238.344C64.2672 241.811 65.3339 241.944 85.8672 241.944C97.6006 242.077 110.934 241.544 115.467 241.011L123.734 239.944L124.667 244.877C125.201 247.677 125.201 257.944 124.801 267.944C123.867 290.611 115.067 337.144 109.867 346.877C105.467 355.144 105.467 362.477 110.001 370.744C115.467 380.744 123.734 385.411 135.867 385.411C146.534 385.411 155.734 379.944 160.267 371.144C162.667 366.477 172.134 324.477 175.467 303.411C178.801 282.744 178.801 237.944 175.601 224.611C172.134 210.744 168.667 203.544 161.867 196.211C152.667 186.344 147.334 184.877 125.601 185.811C115.867 186.211 107.867 186.211 107.867 185.811C107.867 183.144 131.334 142.477 141.601 127.411C146.934 119.544 149.467 116.877 151.334 117.144C167.734 119.811 174.001 118.877 180.667 113.144C189.067 105.677 191.734 96.4772 189.201 82.7438C183.867 53.2772 163.467 40.6105 140.134 52.3438ZM1831.87 179.01C1862.93 130.344 1884.27 106.877 1902.13 101.944C1914.53 98.4769 1926.93 101.944 1936 111.677C1942.67 118.61 1945.2 124.077 1945.2 131.677C1945.07 145.81 1933.73 157.544 1919.73 158.077C1913.07 158.344 1912.8 158.477 1905.6 167.544C1894.8 180.877 1863.07 229.01 1864.13 230.077C1864.4 230.344 1873.33 228.877 1884.13 226.744C1924.13 218.877 1940.4 218.61 1962.4 225.41C1990.4 234.21 2010.53 255.544 2017.87 284.077C2020.67 294.744 2020 323.81 2016.53 337.41C2007.87 372.477 2004.13 379.144 1990.67 383.81C1977.73 388.344 1960.67 381.41 1954.53 369.41C1949.47 359.544 1951.47 346.077 1959.2 337.41C1961.47 334.877 1962.8 330.477 1964.53 319.81C1968.27 297.81 1964.93 286.744 1952.4 279.277C1946.67 275.944 1944.27 275.41 1932.53 275.01C1921.87 274.61 1916 275.144 1902.53 278.077C1828.8 293.677 1821.2 294.744 1810.27 291.544C1796.53 287.544 1787.87 275.01 1789.47 261.01C1790.8 248.877 1805.87 219.944 1831.87 179.01ZM1102.67 108.877C1095.2 112.61 1092 116.744 1088.4 126.744C1084.4 138.077 1059.47 186.077 1047.47 205.41C1028.13 236.477 1009.73 264.61 994.534 286.077C986.667 297.01 977.601 310.21 974.134 315.277L968.134 324.344L966.801 319.944C966.001 317.41 963.467 310.61 961.201 304.744C953.601 285.41 938.534 241.01 935.067 227.41C932.934 219.277 931.201 207.944 930.667 198.077C929.334 176.21 926.134 170.077 913.201 164.21C905.334 160.61 899.334 160.744 891.067 164.61C883.334 168.21 879.734 172.344 876.401 181.01C874.267 186.477 874.134 189.01 875.601 205.944C877.601 231.144 881.867 247.81 898.934 296.077C900.521 300.458 902.32 305.383 903.971 309.903C905.787 314.874 907.423 319.353 908.401 322.077C910.401 327.144 913.067 335.41 914.401 340.344C915.734 345.144 918.667 352.077 920.934 355.677C924.801 361.677 934.134 379.944 941.734 396.077C943.601 400.077 947.067 405.677 949.334 408.61C954.134 414.344 965.067 420.077 971.201 420.077C987.201 420.077 999.734 407.41 999.867 391.277C999.867 379.41 1010.27 359.677 1034 326.61C1040.53 317.544 1050.67 302.877 1056.53 294.077L1067.2 277.944L1071.73 281.01C1078.8 285.81 1088 287.944 1105.33 288.877C1120 289.81 1120.93 289.944 1118.27 291.81C1101.47 303.01 1095.6 319.677 1103.07 335.544C1108.93 348.21 1127.33 360.61 1154 369.81C1185.2 380.61 1214.67 385.41 1250.4 385.41C1270 385.41 1273.33 385.677 1278.27 388.077C1292 394.744 1307.2 388.077 1314.4 372.077C1321.07 357.277 1314.67 339.144 1300.53 333.277C1297.6 332.077 1285.87 331.544 1258.53 331.41C1219.2 331.277 1212.8 330.61 1187.33 323.677L1180.67 321.944L1208.67 313.677C1257.07 299.277 1270.4 294.744 1274.67 291.144C1286.53 281.144 1287.33 262.344 1276.27 250.61L1273.07 247.01L1280.53 246.077C1290.27 244.877 1296.8 242.21 1302.27 237.01C1316.93 223.144 1311.07 199.01 1291.73 193.277C1287.73 191.944 1282.27 191.944 1268.13 193.144C1220.67 197.277 1172 198.077 1151.6 195.277C1139.07 193.677 1124 201.277 1118.53 212.077C1116.8 215.41 1114.8 217.41 1112.27 217.944C1111.47 218.156 1110.55 218.39 1109.64 218.619C1108.27 218.966 1106.94 219.303 1106.13 219.544C1103.6 220.344 1116.13 194.744 1133.2 164.21C1140.8 150.877 1141.87 147.944 1142.27 140.477C1143.07 128.744 1140.53 120.877 1134 113.944C1125.2 104.877 1114.4 103.144 1102.67 108.877ZM298.534 166.211C302.534 166.477 311.601 165.944 318.534 164.877C325.467 163.944 338.001 163.011 346.267 162.877C358.667 162.744 362.134 163.144 366.267 165.277C379.734 172.211 385.067 188.077 378.267 201.411C371.601 214.344 361.334 218.211 328.267 219.944C309.334 221.011 306.134 221.544 303.067 223.944L299.467 226.744H304.801C312.401 226.744 318.667 229.677 324.267 235.944C330.934 243.277 332.801 250.211 330.801 259.811C329.201 267.811 327.867 279.144 324.534 317.277C322.667 337.811 322.001 341.277 318.801 347.144C313.867 356.211 307.201 360.477 296.667 361.144C283.601 361.944 274.534 356.344 269.734 344.344C267.601 339.011 267.601 337.544 269.601 323.011C270.801 314.477 272.401 299.544 273.201 290.077C275.601 261.411 277.201 249.411 279.334 244.344C281.601 238.877 288.401 231.011 292.534 229.411C294.401 228.611 293.067 228.211 287.867 228.077C282.534 228.077 279.067 227.144 275.201 224.744C272.267 223.011 266.534 219.944 262.534 218.077C249.867 212.077 243.867 203.944 243.867 192.744C243.867 175.011 260.401 162.744 281.467 164.611C284.312 164.895 287.841 165.217 291.121 165.517L291.14 165.519L291.148 165.52L291.159 165.521L291.165 165.521L291.168 165.522L291.175 165.522C294.023 165.782 296.68 166.025 298.534 166.211ZM517.867 206.077C502.401 210.21 470.534 225.677 453.201 237.41C428.267 254.21 413.334 267.41 409.867 275.544C405.334 286.477 408.267 300.344 416.801 308.21C429.867 320.344 476.667 332.477 532.534 338.21C559.867 341.01 700.134 342.611 708.134 340.21C726.801 334.611 732.801 308.344 718.401 295.144C710.948 288.356 709.738 288.344 631.628 287.548H631.627L631.201 287.544C590.934 287.277 552.534 286.344 545.867 285.544C514.667 281.944 491.867 278.21 492.267 276.877C492.534 276.077 496.267 273.677 500.667 271.677C504.934 269.544 509.734 266.744 511.201 265.41C512.667 264.077 518.001 261.277 522.934 259.277L532.134 255.677L540.667 259.277C554.934 265.01 565.334 263.81 573.467 255.144C586.401 241.544 582.267 221.277 564.801 213.01C546.801 204.477 531.734 202.344 517.867 206.077ZM1607.47 228.21C1610 221.277 1617.47 212.61 1623.07 210.077C1629.33 207.41 1640.4 207.677 1646.27 210.61C1652 213.544 1657.33 219.01 1660.4 224.877C1665.2 234.61 1675.47 265.277 1680.13 284.744L1681.47 290.077L1714.4 287.01C1751.07 283.544 1753.73 283.81 1762.13 291.144C1773.47 301.01 1774.93 316.61 1765.73 328.877C1760.27 336.344 1753.33 338.477 1729.07 340.077C1692.54 342.327 1692.53 342.344 1690.71 347.299L1690.67 347.41C1689.87 349.81 1687.07 353.944 1684.4 356.61C1672.67 368.61 1655.87 368.477 1644.8 356.21L1639.87 350.744L1637.33 355.944C1631.73 366.877 1617.73 376.077 1606.93 376.077C1601.73 376.077 1593.47 372.744 1589.47 369.01C1585.87 365.677 1581.2 357.277 1581.2 354.077C1581.2 353.01 1580.67 352.077 1579.87 352.077C1577.47 352.077 1568.8 343.41 1567.07 339.144C1564.8 333.944 1564.67 323.01 1566.67 317.81C1569.33 310.61 1577.47 304.21 1587.87 301.01C1589.33 300.61 1592.13 290.744 1597.6 267.277C1601.87 249.01 1606.4 231.41 1607.47 228.21ZM1425.2 225.411C1391.73 226.211 1391.07 226.344 1379.2 230.344C1348.93 240.744 1334.53 249.677 1328.4 261.677C1317.73 282.744 1315.87 295.544 1322.13 306.877C1325.6 313.411 1333.73 319.411 1342.53 322.077C1344.27 322.611 1353.33 327.411 1362.67 332.611C1372 337.944 1387.2 345.677 1396.67 349.944C1406.13 354.211 1424.93 363.144 1438.4 369.677C1477.73 388.877 1488.4 392.877 1505.2 394.211C1514.4 394.877 1515.73 394.611 1522.53 391.144C1536.27 384.077 1541.2 367.811 1533.87 353.411C1529.87 345.544 1522.67 340.877 1511.87 338.877C1498.27 336.477 1491.33 333.811 1463.87 320.344C1448.8 313.011 1432.67 305.277 1427.87 303.411C1416.4 298.611 1393.6 287.144 1392.67 285.677C1390.67 282.477 1403.07 281.011 1438.53 280.211C1472.67 279.411 1475.6 279.144 1480.53 276.611C1487.2 273.011 1489.73 270.211 1493.07 262.744C1498.27 251.411 1495.6 239.411 1486.13 231.144C1480.53 226.211 1473.6 223.944 1465.2 224.344C1461.87 224.477 1443.87 225.011 1425.2 225.411ZM750.934 243.677C754.001 236.744 758.667 232.344 765.334 229.41C767.201 228.61 776.934 228.344 788.534 228.61C806.134 229.01 809.867 229.544 819.201 232.744C858.401 246.21 878.534 265.144 878.534 288.344C878.534 313.944 853.067 332.077 817.201 332.077C800.401 332.077 785.467 328.344 768.534 319.944C736.801 304.21 723.867 285.544 731.867 267.01C734.667 260.61 743.467 250.744 746.401 250.744C747.067 250.744 749.201 247.544 750.934 243.677Z" fill="#1b1b1b" fill-opacity="1" />
<path d="M140.134 52.344C119.201 62.744 92.1339 98.6106 64.1339 153.011C48.8006 183.011 41.3339 199.944 40.2672 207.544C38.5339 220.077 45.3339 231.944 57.7339 238.344C64.2672 241.811 65.3339 241.944 85.8672 241.944C97.6006 242.077 110.934 241.544 115.467 241.011L123.734 239.944L124.667 244.877C125.201 247.677 125.201 257.944 124.801 267.944C123.867 290.611 115.067 337.144 109.867 346.877C105.467 355.144 105.467 362.477 110.001 370.744C115.467 380.744 123.734 385.411 135.867 385.411C146.534 385.411 155.734 379.944 160.267 371.144C162.667 366.477 172.134 324.477 175.467 303.411C178.801 282.744 178.801 237.944 175.601 224.611C172.134 210.744 168.667 203.544 161.867 196.211C152.667 186.344 147.334 184.877 125.601 185.811C115.867 186.211 107.867 186.211 107.867 185.811C107.867 183.144 131.334 142.477 141.601 127.411C146.934 119.544 149.467 116.877 151.334 117.144C167.734 119.811 174.001 118.877 180.667 113.144C189.067 105.677 191.734 96.4773 189.201 82.744C183.867 53.2773 163.467 40.6106 140.134 52.344Z" fill="#232323" fill-opacity="1"/>
<path d="M1902.13 101.944C1884.27 106.877 1862.93 130.344 1831.87 179.01C1805.87 219.944 1790.8 248.877 1789.47 261.01C1787.87 275.01 1796.53 287.544 1810.27 291.544C1821.2 294.744 1828.8 293.677 1902.53 278.077C1916 275.144 1921.87 274.61 1932.53 275.01C1944.27 275.41 1946.67 275.944 1952.4 279.277C1964.93 286.744 1968.27 297.81 1964.53 319.81C1962.8 330.477 1961.47 334.877 1959.2 337.41C1951.47 346.077 1949.47 359.544 1954.53 369.41C1960.67 381.41 1977.73 388.344 1990.67 383.81C2004.13 379.144 2007.87 372.477 2016.53 337.41C2020 323.81 2020.67 294.744 2017.87 284.077C2010.53 255.544 1990.4 234.21 1962.4 225.41C1940.4 218.61 1924.13 218.877 1884.13 226.744C1873.33 228.877 1864.4 230.344 1864.13 230.077C1863.07 229.01 1894.8 180.877 1905.6 167.544C1912.8 158.477 1913.07 158.344 1919.73 158.077C1933.73 157.544 1945.07 145.81 1945.2 131.677C1945.2 124.077 1942.67 118.61 1936 111.677C1926.93 101.944 1914.53 98.4769 1902.13 101.944Z" fill="#232323" fill-opacity="1"/>
<path d="M1102.67 108.877C1095.2 112.61 1092 116.744 1088.4 126.744C1084.4 138.077 1059.47 186.077 1047.47 205.41C1028.13 236.477 1009.73 264.61 994.534 286.077C986.667 297.01 977.601 310.21 974.134 315.277L968.134 324.344L966.801 319.944C966.001 317.41 963.467 310.61 961.201 304.744C953.601 285.41 938.534 241.01 935.067 227.41C932.934 219.277 931.201 207.944 930.667 198.077C929.334 176.21 926.134 170.077 913.201 164.21C905.334 160.61 899.334 160.744 891.067 164.61C883.334 168.21 879.734 172.344 876.401 181.01C874.267 186.477 874.134 189.01 875.601 205.944C877.601 231.144 881.867 247.81 898.934 296.077C902.267 305.277 906.534 316.877 908.401 322.077C910.401 327.144 913.067 335.41 914.401 340.344C915.734 345.144 918.667 352.077 920.934 355.677C924.801 361.677 934.134 379.944 941.734 396.077C943.601 400.077 947.067 405.677 949.334 408.61C954.134 414.344 965.067 420.077 971.201 420.077C987.201 420.077 999.734 407.41 999.867 391.277C999.867 379.41 1010.27 359.677 1034 326.61C1040.53 317.544 1050.67 302.877 1056.53 294.077L1067.2 277.944L1071.73 281.01C1078.8 285.81 1088 287.944 1105.33 288.877C1120 289.81 1120.93 289.944 1118.27 291.81C1101.47 303.01 1095.6 319.677 1103.07 335.544C1108.93 348.21 1127.33 360.61 1154 369.81C1185.2 380.61 1214.67 385.41 1250.4 385.41C1270 385.41 1273.33 385.677 1278.27 388.077C1292 394.744 1307.2 388.077 1314.4 372.077C1321.07 357.277 1314.67 339.144 1300.53 333.277C1297.6 332.077 1285.87 331.544 1258.53 331.41C1219.2 331.277 1212.8 330.61 1187.33 323.677L1180.67 321.944L1208.67 313.677C1257.07 299.277 1270.4 294.744 1274.67 291.144C1286.53 281.144 1287.33 262.344 1276.27 250.61L1273.07 247.01L1280.53 246.077C1290.27 244.877 1296.8 242.21 1302.27 237.01C1316.93 223.144 1311.07 199.01 1291.73 193.277C1287.73 191.944 1282.27 191.944 1268.13 193.144C1220.67 197.277 1172 198.077 1151.6 195.277C1139.07 193.677 1124 201.277 1118.53 212.077C1116.8 215.41 1114.8 217.41 1112.27 217.944C1110.27 218.477 1107.47 219.144 1106.13 219.544C1103.6 220.344 1116.13 194.744 1133.2 164.21C1140.8 150.877 1141.87 147.944 1142.27 140.477C1143.07 128.744 1140.53 120.877 1134 113.944C1125.2 104.877 1114.4 103.144 1102.67 108.877Z" fill="#232323" fill-opacity="1"/>
<path d="M318.534 164.877C311.601 165.944 302.534 166.477 298.534 166.21C294.534 165.81 286.801 165.144 281.467 164.61C260.401 162.744 243.867 175.01 243.867 192.744C243.867 203.944 249.867 212.077 262.534 218.077C266.534 219.944 272.267 223.01 275.201 224.744C279.067 227.144 282.534 228.077 287.867 228.077C293.067 228.21 294.401 228.61 292.534 229.41C288.401 231.01 281.601 238.877 279.334 244.344C277.201 249.41 275.601 261.41 273.201 290.077C272.401 299.544 270.801 314.477 269.601 323.01C267.601 337.544 267.601 339.01 269.734 344.344C274.534 356.344 283.601 361.944 296.667 361.144C307.201 360.477 313.867 356.21 318.801 347.144C322.001 341.277 322.667 337.81 324.534 317.277C327.867 279.144 329.201 267.81 330.801 259.81C332.801 250.21 330.934 243.277 324.267 235.944C318.667 229.677 312.401 226.744 304.801 226.744H299.467L303.067 223.944C306.134 221.544 309.334 221.01 328.267 219.944C361.334 218.21 371.601 214.344 378.267 201.41C385.067 188.077 379.734 172.21 366.267 165.277C362.134 163.144 358.667 162.744 346.267 162.877C338.001 163.01 325.467 163.944 318.534 164.877Z" fill="#232323" fill-opacity="1"/>
<path d="M517.867 206.077C502.4 210.21 470.533 225.677 453.2 237.41C428.267 254.21 413.333 267.41 409.867 275.544C405.333 286.477 408.267 300.344 416.8 308.21C429.867 320.344 476.667 332.477 532.533 338.21C559.867 341.01 700.133 342.61 708.133 340.21C726.8 334.61 732.8 308.344 718.4 295.144C710.933 288.344 709.733 288.344 631.2 287.544C590.933 287.277 552.533 286.344 545.867 285.544C514.667 281.944 491.867 278.21 492.267 276.877C492.533 276.077 496.267 273.677 500.667 271.677C504.933 269.544 509.733 266.744 511.2 265.41C512.667 264.077 518 261.277 522.933 259.277L532.133 255.677L540.667 259.277C554.933 265.01 565.333 263.81 573.467 255.144C586.4 241.544 582.267 221.277 564.8 213.01C546.8 204.477 531.733 202.344 517.867 206.077Z" fill="#232323" fill-opacity="1"/>
<path d="M1623.07 210.077C1617.47 212.61 1610 221.277 1607.47 228.21C1606.4 231.41 1601.87 249.01 1597.6 267.277C1592.13 290.744 1589.33 300.61 1587.87 301.01C1577.47 304.21 1569.33 310.61 1566.67 317.81C1564.67 323.01 1564.8 333.944 1567.07 339.144C1568.8 343.41 1577.47 352.077 1579.87 352.077C1580.67 352.077 1581.2 353.01 1581.2 354.077C1581.2 357.277 1585.87 365.677 1589.47 369.01C1593.47 372.744 1601.73 376.077 1606.93 376.077C1617.73 376.077 1631.73 366.877 1637.33 355.944L1639.87 350.744L1644.8 356.21C1655.87 368.477 1672.67 368.61 1684.4 356.61C1687.07 353.944 1689.87 349.81 1690.67 347.41C1692.53 342.344 1692.27 342.344 1729.07 340.077C1753.33 338.477 1760.27 336.344 1765.73 328.877C1774.93 316.61 1773.47 301.01 1762.13 291.144C1753.73 283.81 1751.07 283.544 1714.4 287.01L1681.47 290.077L1680.13 284.744C1675.47 265.277 1665.2 234.61 1660.4 224.877C1657.33 219.01 1652 213.544 1646.27 210.61C1640.4 207.677 1629.33 207.41 1623.07 210.077Z" fill="#232323" fill-opacity="1"/>
<path d="M1425.2 225.411C1391.73 226.211 1391.07 226.344 1379.2 230.344C1348.93 240.744 1334.53 249.677 1328.4 261.677C1317.73 282.744 1315.87 295.544 1322.13 306.877C1325.6 313.411 1333.73 319.411 1342.53 322.077C1344.27 322.611 1353.33 327.411 1362.67 332.611C1372 337.944 1387.2 345.677 1396.67 349.944C1406.13 354.211 1424.93 363.144 1438.4 369.677C1477.73 388.877 1488.4 392.877 1505.2 394.211C1514.4 394.877 1515.73 394.611 1522.53 391.144C1536.27 384.077 1541.2 367.811 1533.87 353.411C1529.87 345.544 1522.67 340.877 1511.87 338.877C1498.27 336.477 1491.33 333.811 1463.87 320.344C1448.8 313.011 1432.67 305.277 1427.87 303.411C1416.4 298.611 1393.6 287.144 1392.67 285.677C1390.67 282.477 1403.07 281.011 1438.53 280.211C1472.67 279.411 1475.6 279.144 1480.53 276.611C1487.2 273.011 1489.73 270.211 1493.07 262.744C1498.27 251.411 1495.6 239.411 1486.13 231.144C1480.53 226.211 1473.6 223.944 1465.2 224.344C1461.87 224.477 1443.87 225.011 1425.2 225.411Z" fill="#232323" fill-opacity="1"/>
<path d="M765.334 229.41C758.668 232.344 754.001 236.744 750.934 243.677C749.201 247.544 747.068 250.744 746.401 250.744C743.468 250.744 734.668 260.61 731.868 267.01C723.868 285.544 736.801 304.21 768.534 319.944C785.468 328.344 800.401 332.077 817.201 332.077C853.068 332.077 878.534 313.944 878.534 288.344C878.534 265.144 858.401 246.21 819.201 232.744C809.868 229.544 806.134 229.01 788.534 228.61C776.934 228.344 767.201 228.61 765.334 229.41Z" fill="#232323" fill-opacity="1"/>
</g>
<defs>
<clipPath id="clip0_311_2">
<rect width="2059" height="468" fill="white"/>
</clipPath>
</defs>
</svg>
