<?xml version="1.0" standalone="no"?>
<!DOCTYPE svg PUBLIC "-//W3C//DTD SVG 20010904//EN"
 "http://www.w3.org/TR/2001/REC-SVG-20010904/DTD/svg10.dtd">
<svg version="1.0" xmlns="http://www.w3.org/2000/svg"
 width="1569.000000pt" height="1140.000000pt" viewBox="0 0 1569.000000 1140.000000"
 preserveAspectRatio="xMidYMid meet">

<g transform="translate(0.000000,1140.000000) scale(0.100000,-0.100000)"
fill="#232323" stroke="#daaa55" stroke-width="1%">
<path d="M1162 7728 c-157 -78 -360 -347 -570 -755 -115 -225 -171 -352 -179
-409 -13 -94 38 -183 131 -231 49 -26 57 -27 211 -27 88 -1 188 3 222 7 l62 8
7 -37 c4 -21 4 -98 1 -173 -7 -170 -73 -519 -112 -592 -33 -62 -33 -117 1
-179 41 -75 103 -110 194 -110 80 0 149 41 183 107 18 35 89 350 114 508 25
155 25 491 1 591 -26 104 -52 158 -103 213 -69 74 -109 85 -272 78 -73 -3
-133 -3 -133 0 0 20 176 325 253 438 40 59 59 79 73 77 123 -20 170 -13 220
30 63 56 83 125 64 228 -40 221 -193 316 -368 228z"/>
<path d="M14377 7356 c-134 -37 -294 -213 -527 -578 -195 -307 -308 -524 -318
-615 -12 -105 53 -199 156 -229 82 -24 139 -16 692 101 101 22 145 26 225 23
88 -3 106 -7 149 -32 94 -56 119 -139 91 -304 -13 -80 -23 -113 -40 -132 -58
-65 -73 -166 -35 -240 46 -90 174 -142 271 -108 101 35 129 85 194 348 26 102
31 320 10 400 -55 214 -206 374 -416 440 -165 51 -287 49 -587 -10 -81 -16
-148 -27 -150 -25 -8 8 230 369 311 469 54 68 56 69 106 71 105 4 190 92 191
198 0 57 -19 98 -69 150 -68 73 -161 99 -254 73z"/>
<path d="M8381 7304 c-56 -28 -80 -59 -107 -134 -30 -85 -217 -445 -307 -590
-145 -233 -283 -444 -397 -605 -59 -82 -127 -181 -153 -219 l-45 -68 -10 33
c-6 19 -25 70 -42 114 -57 145 -170 478 -196 580 -16 61 -29 146 -33 220 -10
164 -34 210 -131 254 -59 27 -104 26 -166 -3 -58 -27 -85 -58 -110 -123 -16
-41 -17 -60 -6 -187 15 -189 47 -314 175 -676 25 -69 57 -156 71 -195 15 -38
35 -100 45 -137 10 -36 32 -88 49 -115 29 -45 99 -182 156 -303 14 -30 40 -72
57 -94 36 -43 118 -86 164 -86 120 0 214 95 215 216 0 89 78 237 256 485 49
68 125 178 169 244 l80 121 34 -23 c53 -36 122 -52 252 -59 110 -7 117 -8 97
-22 -126 -84 -170 -209 -114 -328 44 -95 182 -188 382 -257 234 -81 455 -117
723 -117 147 0 172 -2 209 -20 103 -50 217 0 271 120 50 111 2 247 -104 291
-22 9 -110 13 -315 14 -295 1 -343 6 -534 58 l-50 13 210 62 c363 108 463 142
495 169 89 75 95 216 12 304 l-24 27 56 7 c73 9 122 29 163 68 110 104 66 285
-79 328 -30 10 -71 10 -177 1 -356 -31 -721 -37 -874 -16 -94 12 -207 -45
-248 -126 -13 -25 -28 -40 -47 -44 -15 -4 -36 -9 -46 -12 -19 -6 75 186 203
415 57 100 65 122 68 178 6 88 -13 147 -62 199 -66 68 -147 81 -235 38z"/>
<path d="M2500 6884 c-52 -8 -120 -12 -150 -10 -30 3 -88 8 -128 12 -158 14
-282 -78 -282 -211 0 -84 45 -145 140 -190 30 -14 73 -37 95 -50 29 -18 55
-25 95 -25 39 -1 49 -4 35 -10 -31 -12 -82 -71 -99 -112 -16 -38 -28 -128 -46
-343 -6 -71 -18 -183 -27 -247 -15 -109 -15 -120 1 -160 36 -90 104 -132 202
-126 79 5 129 37 166 105 24 44 29 70 43 224 25 286 35 371 47 431 15 72 1
124 -49 179 -42 47 -89 69 -146 69 l-40 0 27 21 c23 18 47 22 189 30 248 13
325 42 375 139 51 100 11 219 -90 271 -31 16 -57 19 -150 18 -62 -1 -156 -8
-208 -15z"/>
<path d="M3995 6575 c-116 -31 -355 -147 -485 -235 -187 -126 -299 -225 -325
-286 -34 -82 -12 -186 52 -245 98 -91 449 -182 868 -225 205 -21 1257 -33
1317 -15 140 42 185 239 77 338 -56 51 -65 51 -654 57 -302 2 -590 9 -640 15
-234 27 -405 55 -402 65 2 6 30 24 63 39 32 16 68 37 79 47 11 10 51 31 88 46
l69 27 64 -27 c107 -43 185 -34 246 31 97 102 66 254 -65 316 -135 64 -248 80
-352 52z"/>
<path d="M12284 6545 c-42 -19 -98 -84 -117 -136 -8 -24 -42 -156 -74 -293
-41 -176 -62 -250 -73 -253 -78 -24 -139 -72 -159 -126 -15 -39 -14 -121 3
-160 13 -32 78 -97 96 -97 6 0 10 -7 10 -15 0 -24 35 -87 62 -112 30 -28 92
-53 131 -53 81 0 186 69 228 151 l19 39 37 -41 c83 -92 209 -93 297 -3 20 20
41 51 47 69 14 38 12 38 288 55 182 12 234 28 275 84 69 92 58 209 -27 283
-63 55 -83 57 -358 31 l-247 -23 -10 40 c-35 146 -112 376 -148 449 -23 44
-63 85 -106 107 -44 22 -127 24 -174 4z"/>
<path d="M10800 6430 c-251 -6 -256 -7 -345 -37 -227 -78 -335 -145 -381 -235
-80 -158 -94 -254 -47 -339 26 -49 87 -94 153 -114 13 -4 81 -40 151 -79 70
-40 184 -98 255 -130 71 -32 212 -99 313 -148 295 -144 375 -174 501 -184 69
-5 79 -3 130 23 103 53 140 175 85 283 -30 59 -84 94 -165 109 -102 18 -154
38 -360 139 -113 55 -234 113 -270 127 -86 36 -257 122 -264 133 -15 24 78 35
344 41 256 6 278 8 315 27 50 27 69 48 94 104 39 85 19 175 -52 237 -42 37
-94 54 -157 51 -25 -1 -160 -5 -300 -8z"/>
<path d="M5851 6400 c-50 -22 -85 -55 -108 -107 -13 -29 -29 -53 -34 -53 -22
0 -88 -74 -109 -122 -60 -139 37 -279 275 -397 127 -63 239 -91 365 -91 269 0
460 136 460 328 0 174 -151 316 -445 417 -70 24 -98 28 -230 31 -87 2 -160 0
-174 -6z"/>
</g>
</svg>
